<svg id="Group_7" data-name="Group 7" xmlns="http://www.w3.org/2000/svg" width="437" height="160.784" viewBox="0 0 437 160.784">
  <g id="Logo">
    <g id="Artwork_1" data-name="Artwork 1" transform="translate(71.672 80.392)">
      <g id="Group_3" data-name="Group 3" transform="translate(-71.672 -80.392)">
        <g id="Group_1" data-name="Group 1" transform="translate(0 14.914)">
          <path id="Path_1" data-name="Path 1" d="M52.048,131.034H64.32a1.228,1.228,0,0,0,1.037-1.885L47.694,101.27h9.186a1.228,1.228,0,0,0,1.053-1.86l-22.323-37.2a1.228,1.228,0,0,0-2.105,0l-22.323,37.2a1.228,1.228,0,0,0,1.053,1.86h9.423L3.76,129.142a1.228,1.228,0,0,0,1.033,1.891H17.067L.281,151.346a1.228,1.228,0,0,0,.946,2.01h24.66V167.01a1.228,1.228,0,0,0,1.228,1.228H42a1.228,1.228,0,0,0,1.228-1.228V153.356H67.917a1.228,1.228,0,0,0,.946-2.011ZM40.77,165.783H28.343V153.356H40.77ZM3.835,150.9l16.786-20.313a1.228,1.228,0,0,0-.946-2.01H7.04l17.9-27.872A1.228,1.228,0,0,0,23.9,98.814H14.4l20.154-33.59,20.154,33.59H45.462a1.228,1.228,0,0,0-1.037,1.885l17.664,27.878H49.438a1.228,1.228,0,0,0-.946,2.011L65.306,150.9Z" transform="translate(0 -61.61)" fill="#214729"/>
          <path id="Path_2" data-name="Path 2" d="M85.9,172.771A.737.737,0,0,0,84.88,173l-3.913,6.183a.737.737,0,0,0,1.245.788l3.913-6.183A.737.737,0,0,0,85.9,172.771Z" transform="translate(-61.281 -145.776)" fill="#214729"/>
          <path id="Path_3" data-name="Path 3" d="M213.928,388.941a.737.737,0,0,0,1.123-.954L208.272,380a.737.737,0,0,0-1.123.953Z" transform="translate(-156.873 -302.734)" fill="#214729"/>
          <path id="Path_4" data-name="Path 4" d="M132,457.066a.737.737,0,0,0,.737-.737v-6.378a.737.737,0,0,0-1.473,0v6.378A.736.736,0,0,0,132,457.066Z" transform="translate(-99.487 -355.39)" fill="#214729"/>
          <path id="Path_5" data-name="Path 5" d="M151.21,464.976a.736.736,0,0,0,.737-.737v-3.852a.737.737,0,0,0-1.473,0v3.852A.737.737,0,0,0,151.21,464.976Z" transform="translate(-114.049 -363.3)" fill="#214729"/>
        </g>
        <g id="Group_2" data-name="Group 2" transform="translate(78.523)">
          <path id="Path_6" data-name="Path 6" d="M499.642,119.213c.694-.46,1.388-.9,2.059-1.329,5.4-3.439,9.666-6.154,10.26-15.186.667-10.145-12.345-22.393-12.473-22.512-.374-.345-9.178-8.6-9.833-20.371-.633-11.389,6.14-16.4,9.394-18.808.192-.142.372-.275.535-.4.416-.315.949-.667,1.566-1.075,3.673-2.425,10.509-6.941,10.814-15.719.356-10.256-10.432-21.622-10.541-21.736a1.228,1.228,0,0,1,1.771-1.7C503.669.871,514.81,12.6,514.419,23.9c-.349,10.044-8.16,15.2-11.914,17.683-.582.384-1.084.716-1.437.983-.17.129-.357.267-.557.415-3.132,2.318-8.963,6.631-8.4,16.7.6,10.756,8.963,18.626,9.05,18.706.572.532,14,13.164,13.254,24.474-.676,10.274-5.88,13.588-11.391,17.1-.662.421-1.346.857-2.021,1.3-5.968,3.957-8.712,8.415-8.9,14.454-.189,6.173.221,10,11.144,23.054a1.228,1.228,0,1,1-1.883,1.576c-11.473-13.709-11.918-18.109-11.716-24.705C489.857,128.815,493.032,123.6,499.642,119.213Z" transform="translate(-449.619 0)" fill="#1f2c71"/>
          <path id="Path_7" data-name="Path 7" d="M324.424,135.639c.209-6.824,3.384-12.043,9.994-16.426.694-.46,1.388-.9,2.059-1.329,5.4-3.439,9.665-6.154,10.259-15.186.667-10.145-12.345-22.393-12.473-22.512-.374-.345-9.178-8.6-9.833-20.371-.633-11.389,6.139-16.4,9.395-18.808.192-.142.372-.275.535-.4.416-.315.949-.667,1.566-1.075,3.673-2.425,10.509-6.941,10.814-15.719C347.1,13.558,336.308,2.192,336.2,2.078a1.228,1.228,0,0,1,1.771-1.7c.474.494,11.616,12.223,11.224,23.522-.349,10.044-8.16,15.2-11.915,17.683-.582.384-1.084.716-1.437.983-.17.129-.357.267-.557.415-3.132,2.318-8.963,6.631-8.4,16.7.6,10.756,8.963,18.626,9.05,18.706.572.532,14,13.164,13.254,24.474-.676,10.274-5.881,13.588-11.391,17.1-.662.421-1.346.857-2.021,1.3-5.968,3.957-8.712,8.415-8.9,14.454-.189,6.173.221,10,11.144,23.054a1.228,1.228,0,1,1-1.883,1.576C324.667,146.636,324.222,142.236,324.424,135.639Z" transform="translate(-324.389 0)" fill="#1f2c71"/>
          <path id="Path_8" data-name="Path 8" d="M494.962,78.476c-1.353,0-2.5-1.21-3.172-2.116-.72.91-1.9,2.116-3.073,2.116h0c-1.756,0-3.075-2.585-3.322-3.1a.737.737,0,0,1,1.329-.635c.455.948,1.4,2.262,2,2.264h0c.635,0,1.849-1.361,2.482-2.344a.737.737,0,0,1,1.265.042c.416.751,1.575,2.3,2.5,2.3.9,0,1.892-1.52,2.234-2.255a.737.737,0,0,1,1.337.618C498.386,75.684,497.037,78.476,494.962,78.476Z" transform="translate(-446.363 -56.33)" fill="#1f2c71"/>
          <path id="Path_9" data-name="Path 9" d="M372.723,577.569a.737.737,0,0,1,.982.347c.454.948,1.4,2.262,2,2.264h0c.635,0,1.849-1.361,2.482-2.344a.737.737,0,0,1,1.265.042c.416.751,1.575,2.3,2.5,2.3.9,0,1.891-1.519,2.233-2.256a.737.737,0,0,1,1.337.618c-.147.318-1.5,3.11-3.571,3.11-1.353,0-2.5-1.21-3.173-2.116-.72.91-1.9,2.116-3.073,2.116h0c-1.755,0-3.075-2.585-3.322-3.1A.737.737,0,0,1,372.723,577.569Z" transform="translate(-360.706 -437.706)" fill="#1f2c71"/>
          <path id="Path_10" data-name="Path 10" d="M377.345,237.379c-.72.91-1.9,2.116-3.073,2.116h0c-1.126,0-2.073-1.066-2.672-1.964-.854,1.3-1.6,1.964-2.224,1.964a.6.6,0,0,1-.179-.022,4.619,4.619,0,0,1-3.31-3.193.737.737,0,0,1,1.416-.408,3.143,3.143,0,0,0,2.044,2.112,9.845,9.845,0,0,0,1.625-2.267.737.737,0,0,1,1.308.041c.455.948,1.4,2.262,2,2.263h0c.635,0,1.849-1.361,2.482-2.344a.737.737,0,0,1,1.264.042c.417.751,1.575,2.3,2.5,2.3.9,0,1.892-1.519,2.234-2.255a.737.737,0,0,1,1.337.618c-.147.319-1.5,3.11-3.571,3.11C379.164,239.5,378.015,238.286,377.345,237.379Z" transform="translate(-355.816 -178.372)" fill="#1f2c71"/>
          <path id="Path_11" data-name="Path 11" d="M451.1,370.035a.737.737,0,0,1,.912.5,3.142,3.142,0,0,0,2.044,2.112,9.846,9.846,0,0,0,1.625-2.267.737.737,0,0,1,1.308.041c.455.948,1.4,2.262,2,2.264h0c.635,0,1.849-1.361,2.482-2.344a.737.737,0,0,1,1.265.042c.416.751,1.575,2.3,2.5,2.3.895,0,1.891-1.518,2.233-2.255a.737.737,0,0,1,1.338.617c-.147.319-1.5,3.111-3.571,3.111-1.353,0-2.5-1.21-3.172-2.116-.72.91-1.9,2.116-3.073,2.116h0c-1.126,0-2.073-1.066-2.672-1.964-.854,1.3-1.6,1.964-2.224,1.964a.487.487,0,0,1-.179-.022,4.62,4.62,0,0,1-3.31-3.193A.736.736,0,0,1,451.1,370.035Z" transform="translate(-420.025 -280.441)" fill="#1f2c71"/>
          <path id="Path_12" data-name="Path 12" d="M484.643,419.986a.737.737,0,0,1,.912.5A3.142,3.142,0,0,0,487.6,422.6a9.853,9.853,0,0,0,1.626-2.267.737.737,0,0,1,1.308.042c.441.924,1.4,2.261,2,2.263h0c.635,0,1.849-1.361,2.482-2.344a.738.738,0,0,1,1.265.042c.416.751,1.575,2.3,2.5,2.3.895,0,1.891-1.518,2.233-2.255a.737.737,0,0,1,1.338.617c-.147.318-1.5,3.111-3.571,3.111-1.353,0-2.5-1.21-3.172-2.116-.72.91-1.9,2.116-3.073,2.116h0c-1.126,0-2.073-1.066-2.672-1.964-.854,1.3-1.6,1.964-2.224,1.964h0a.743.743,0,0,1-.177-.022,4.621,4.621,0,0,1-3.311-3.193A.737.737,0,0,1,484.643,419.986Z" transform="translate(-445.448 -318.301)" fill="#1f2c71"/>
        </g>
      </g>
    </g>
  </g>
  <text id="St._Croix_Publishing" data-name="St. Croix 
Publishing" transform="translate(172 65.392)" font-size="59" font-family="Cabin" font-weight="700"><tspan x="0" y="0">St. Croix </tspan><tspan x="0" y="72">Publishing</tspan></text>
</svg>
