<svg xmlns="http://www.w3.org/2000/svg" width="24.214" height="24.214" viewBox="0 0 24.214 24.214">
  <path id="Icon_feather-message-circle" data-name="Icon feather-message-circle" d="M26.714,14.99a10.342,10.342,0,0,1-1.111,4.69,10.49,10.49,0,0,1-9.379,5.8,10.342,10.342,0,0,1-4.69-1.111L4.5,26.714l2.345-7.034a10.342,10.342,0,0,1-1.111-4.69,10.49,10.49,0,0,1,5.8-9.379A10.342,10.342,0,0,1,16.224,4.5h.617a10.465,10.465,0,0,1,9.873,9.873Z" transform="translate(-3.5 -3.5)" fill="none" stroke="#a8a8a5" stroke-linecap="round" stroke-linejoin="round" stroke-width="2"/>
</svg>
